<?xml version="1.0" standalone="no"?>
<!DOCTYPE svg PUBLIC "-//W3C//DTD SVG 1.1//EN" "http://www.w3.org/Graphics/SVG/1.1/DTD/svg11.dtd">
<svg width="100%" height="100%" viewBox="0 0 366 131" version="1.1" xmlns="http://www.w3.org/2000/svg" xmlns:xlink="http://www.w3.org/1999/xlink" xml:space="preserve" style="fill-rule:evenodd;clip-rule:evenodd;stroke-linejoin:round;stroke-miterlimit:1.41421;">
    <g>
        <path d="M2.064,102.02C2.135,102.01 2.224,102 2.335,101.997C2.443,101.993 2.555,101.989 2.67,101.989C2.774,101.989 2.876,101.993 2.981,101.997C3.085,102.001 3.176,102.011 3.257,102.02L3.257,113.342L8.553,113.342C8.564,113.41 8.573,113.5 8.579,113.612C8.584,113.717 8.588,113.811 8.588,113.895C8.588,113.987 8.584,114.081 8.579,114.178C8.573,114.276 8.564,114.36 8.553,114.43L2.064,114.43L2.064,102.02Z" style="fill:rgb(26,26,24);fill-rule:nonzero;"/>
        <path d="M16.718,110.166L14.489,103.264L12.3,110.166L16.718,110.166ZM13.818,102.02C13.898,102.01 14.006,102 14.147,101.997C14.283,101.993 14.411,101.989 14.526,101.989C14.653,101.989 14.783,101.993 14.914,101.997C15.045,102.001 15.155,102.011 15.233,102.02L19.376,114.43C19.305,114.438 19.208,114.448 19.084,114.451C18.954,114.461 18.834,114.465 18.718,114.465C18.616,114.465 18.508,114.461 18.391,114.451C18.276,114.447 18.179,114.437 18.099,114.43L17.06,111.268L11.955,111.268L10.971,114.43C10.879,114.438 10.772,114.448 10.652,114.451C10.532,114.461 10.419,114.465 10.316,114.465C10.201,114.465 10.083,114.461 9.963,114.451C9.839,114.447 9.745,114.437 9.677,114.43L13.818,102.02Z" style="fill:rgb(26,26,24);fill-rule:nonzero;"/>
        <path d="M28.916,108.027C28.997,108.013 29.095,108.009 29.21,108.002C29.325,107.996 29.428,107.992 29.521,107.992C29.625,107.992 29.727,107.996 29.831,108.002C29.935,108.01 30.026,108.014 30.107,108.027L30.107,114.066C29.91,114.168 29.679,114.257 29.406,114.324C29.136,114.394 28.848,114.451 28.543,114.496C28.239,114.545 27.926,114.576 27.605,114.598C27.283,114.625 26.965,114.633 26.655,114.633C25.827,114.633 25.056,114.5 24.343,114.238C23.632,113.974 23.014,113.58 22.498,113.049C21.979,112.518 21.575,111.861 21.28,111.078C20.988,110.299 20.841,109.387 20.841,108.355C20.841,107.318 20.984,106.398 21.272,105.584C21.56,104.773 21.958,104.086 22.471,103.529C22.983,102.97 23.587,102.547 24.283,102.254C24.978,101.961 25.736,101.815 26.555,101.815C27.277,101.815 27.881,101.864 28.366,101.961C28.849,102.059 29.241,102.156 29.54,102.244C29.515,102.453 29.484,102.629 29.443,102.779C29.404,102.931 29.343,103.103 29.261,103.299C29.01,103.205 28.669,103.113 28.246,103.014C27.819,102.918 27.277,102.866 26.622,102.866C25.967,102.866 25.361,102.993 24.811,103.237C24.257,103.485 23.784,103.844 23.385,104.317C22.989,104.792 22.68,105.362 22.455,106.046C22.228,106.722 22.118,107.493 22.118,108.357C22.118,109.242 22.24,110.007 22.48,110.658C22.723,111.31 23.05,111.846 23.463,112.275C23.879,112.701 24.363,113.015 24.921,113.222C25.479,113.425 26.076,113.533 26.708,113.533C27.225,113.533 27.66,113.513 28.012,113.471C28.361,113.432 28.664,113.366 28.916,113.272L28.916,108.027Z" style="fill:rgb(26,26,24);fill-rule:nonzero;"/>
        <path d="M33.799,102.02L40.444,102.02C40.455,102.09 40.464,102.174 40.47,102.272C40.475,102.37 40.477,102.461 40.477,102.555C40.477,102.639 40.475,102.731 40.47,102.842C40.464,102.949 40.455,103.037 40.444,103.108L34.991,103.108L34.991,107.301L39.373,107.301C39.384,107.371 39.393,107.451 39.401,107.549C39.405,107.651 39.407,107.744 39.407,107.838C39.407,107.916 39.405,108.014 39.401,108.121C39.393,108.23 39.384,108.318 39.373,108.391L34.991,108.391L34.991,113.342L40.598,113.342C40.611,113.41 40.618,113.496 40.624,113.592C40.629,113.692 40.634,113.783 40.634,113.875C40.634,113.955 40.63,114.053 40.624,114.16C40.617,114.269 40.611,114.359 40.598,114.43L33.799,114.43L33.799,102.02Z" style="fill:rgb(26,26,24);fill-rule:nonzero;"/>
        <path d="M43.548,101.971C43.801,101.95 44.024,101.926 44.215,101.909C44.403,101.891 44.587,101.874 44.766,101.86C44.942,101.842 45.13,101.829 45.329,101.825C45.524,101.819 45.752,101.815 46.017,101.815C46.568,101.815 47.111,101.874 47.647,101.989C48.181,102.104 48.662,102.303 49.088,102.583C49.511,102.866 49.854,103.247 50.115,103.724C50.373,104.199 50.502,104.8 50.502,105.527C50.502,105.974 50.42,106.382 50.262,106.754C50.099,107.121 49.89,107.449 49.632,107.742C49.37,108.033 49.071,108.291 48.734,108.502C48.394,108.715 48.044,108.889 47.689,109.029L47.55,109.078L51.501,114.432C51.388,114.453 51.273,114.463 51.157,114.463L50.813,114.463L50.476,114.463C50.367,114.463 50.256,114.453 50.141,114.432L45.791,108.684L45.791,108.614L46.169,108.512C46.562,108.407 46.94,108.274 47.31,108.106C47.677,107.936 48.001,107.737 48.283,107.502C48.566,107.268 48.795,106.984 48.968,106.666C49.137,106.342 49.224,105.961 49.224,105.527C49.224,104.629 48.95,103.955 48.399,103.504C47.843,103.061 47.097,102.832 46.154,102.832C45.912,102.832 45.687,102.84 45.481,102.85C45.272,102.862 45.025,102.889 44.739,102.92L44.739,114.432C44.657,114.44 44.56,114.45 44.445,114.453C44.33,114.463 44.227,114.463 44.134,114.463C44.03,114.463 43.928,114.463 43.824,114.453C43.72,114.449 43.629,114.439 43.547,114.432L43.547,101.971L43.548,101.971Z" style="fill:rgb(26,26,24);fill-rule:nonzero;"/>
        <path d="M53.972,102.02C54.052,102.01 54.151,102 54.267,101.997C54.381,101.993 54.485,101.989 54.578,101.989C54.68,101.989 54.784,101.993 54.888,101.997C54.992,102.001 55.083,102.011 55.163,102.02L55.163,109.51C55.163,110.237 55.223,110.848 55.344,111.348C55.463,111.85 55.65,112.26 55.898,112.584C56.145,112.906 56.457,113.137 56.839,113.277C57.217,113.423 57.672,113.496 58.2,113.496C59.248,113.496 60.014,113.195 60.504,112.584C60.994,111.973 61.237,110.949 61.237,109.51L61.237,102.02C61.317,102.01 61.41,102 61.516,101.997C61.618,101.993 61.722,101.989 61.823,101.989C61.916,101.989 62.02,101.993 62.135,101.997C62.25,102.001 62.347,102.011 62.429,102.02L62.429,109.666C62.429,111.322 62.091,112.566 61.41,113.395C60.731,114.223 59.66,114.633 58.2,114.633C56.74,114.633 55.671,114.223 54.992,113.395C54.313,112.567 53.972,111.323 53.972,109.666L53.972,102.02Z" style="fill:rgb(26,26,24);fill-rule:nonzero;"/>
        <path d="M66.205,102.02C66.287,102.01 66.393,102 66.525,101.997C66.658,101.993 66.769,101.989 66.86,101.989C66.953,101.989 67.063,101.993 67.189,101.997C67.316,102.001 67.42,102.011 67.5,102.02L73.438,112.411L73.438,102.02C73.517,102.01 73.605,102 73.703,101.997C73.802,101.993 73.902,101.989 74.007,101.989C74.1,101.989 74.199,101.993 74.308,101.997C74.416,102.001 74.511,102.011 74.594,102.02L74.594,114.43C74.524,114.438 74.424,114.448 74.29,114.451C74.159,114.461 74.04,114.465 73.936,114.465C73.845,114.465 73.736,114.461 73.609,114.451C73.483,114.447 73.378,114.437 73.299,114.43L67.361,104.127L67.361,114.43C67.281,114.438 67.191,114.448 67.093,114.451C66.996,114.461 66.896,114.465 66.792,114.465C66.676,114.465 66.568,114.461 66.463,114.451C66.361,114.447 66.275,114.437 66.204,114.43L66.204,102.02L66.205,102.02Z" style="fill:rgb(26,26,24);fill-rule:nonzero;"/>
        <path d="M85.964,108.027C86.046,108.013 86.144,108.009 86.258,108.002C86.374,107.996 86.476,107.992 86.569,107.992C86.673,107.992 86.775,107.996 86.88,108.002C86.984,108.01 87.075,108.014 87.156,108.027L87.156,114.066C86.959,114.168 86.728,114.257 86.456,114.324C86.186,114.394 85.898,114.451 85.592,114.496C85.288,114.545 84.975,114.576 84.653,114.598C84.332,114.625 84.014,114.633 83.703,114.633C82.876,114.633 82.106,114.5 81.391,114.238C80.68,113.974 80.063,113.58 79.546,113.049C79.027,112.518 78.624,111.861 78.33,111.078C78.037,110.299 77.889,109.387 77.889,108.355C77.889,107.318 78.032,106.398 78.32,105.584C78.608,104.773 79.008,104.086 79.52,103.529C80.033,102.97 80.635,102.547 81.332,102.254C82.028,101.961 82.785,101.815 83.603,101.815C84.327,101.815 84.93,101.864 85.415,101.961C85.897,102.059 86.289,102.156 86.588,102.244C86.564,102.453 86.532,102.629 86.491,102.779C86.453,102.931 86.391,103.103 86.31,103.299C86.058,103.205 85.718,103.113 85.294,103.014C84.867,102.918 84.326,102.866 83.671,102.866C83.016,102.866 82.41,102.993 81.859,103.237C81.307,103.485 80.833,103.844 80.434,104.317C80.039,104.792 79.728,105.362 79.504,106.046C79.278,106.722 79.166,107.493 79.166,108.357C79.166,109.242 79.289,110.007 79.529,110.658C79.772,111.31 80.098,111.846 80.513,112.275C80.928,112.701 81.412,113.015 81.971,113.222C82.528,113.425 83.125,113.533 83.756,113.533C84.274,113.533 84.71,113.513 85.061,113.471C85.409,113.432 85.711,113.366 85.965,113.272L85.965,108.027L85.964,108.027Z" style="fill:rgb(26,26,24);fill-rule:nonzero;"/>
        <path d="M96.094,101.035C96.176,101.027 96.271,101.017 96.379,101.014C96.489,101.01 96.588,101.004 96.681,101.004C96.785,101.004 96.885,101.01 96.982,101.014C97.079,101.018 97.17,101.028 97.25,101.035L97.25,117.326C97.17,117.338 97.079,117.347 96.982,117.351C96.884,117.361 96.785,117.361 96.681,117.361C96.565,117.361 96.456,117.361 96.352,117.351C96.248,117.347 96.162,117.337 96.093,117.326L96.093,101.035L96.094,101.035Z" style="fill:rgb(26,26,24);fill-rule:nonzero;"/>
        <path d="M106.413,102.02C106.483,102.01 106.571,102 106.683,101.997C106.791,101.993 106.902,101.989 107.018,101.989C107.122,101.989 107.225,101.993 107.329,101.997C107.433,102.001 107.524,102.011 107.605,102.02L107.605,113.342L112.901,113.342C112.912,113.41 112.922,113.5 112.929,113.612C112.933,113.717 112.937,113.811 112.937,113.895C112.937,113.987 112.933,114.081 112.929,114.178C112.922,114.276 112.912,114.36 112.901,114.43L106.413,114.43L106.413,102.02Z" style="fill:rgb(26,26,24);fill-rule:nonzero;"/>
        <path d="M119.389,113.549C120.055,113.549 120.632,113.42 121.115,113.16C121.6,112.902 122.002,112.535 122.323,112.066C122.645,111.591 122.883,111.029 123.041,110.373C123.197,109.719 123.274,108.996 123.274,108.217C123.274,107.434 123.196,106.713 123.041,106.057C122.883,105.403 122.645,104.844 122.323,104.375C122.002,103.91 121.601,103.551 121.115,103.291C120.633,103.029 120.055,102.9 119.389,102.9C118.723,102.9 118.144,103.029 117.656,103.291C117.165,103.551 116.765,103.91 116.447,104.375C116.132,104.844 115.896,105.402 115.74,106.057C115.586,106.713 115.507,107.434 115.507,108.217C115.507,108.996 115.586,109.719 115.74,110.373C115.896,111.029 116.132,111.592 116.447,112.066C116.765,112.535 117.165,112.902 117.656,113.16C118.145,113.42 118.723,113.549 119.389,113.549M119.389,114.633C118.528,114.633 117.773,114.479 117.13,114.16C116.486,113.846 115.953,113.402 115.533,112.832C115.114,112.26 114.796,111.582 114.584,110.795C114.371,110.006 114.264,109.147 114.264,108.217C114.264,107.283 114.37,106.43 114.584,105.645C114.796,104.866 115.114,104.184 115.533,103.618C115.953,103.048 116.486,102.604 117.13,102.29C117.773,101.976 118.528,101.815 119.389,101.815C120.251,101.815 121.006,101.975 121.649,102.29C122.296,102.604 122.826,103.048 123.245,103.618C123.665,104.184 123.982,104.866 124.195,105.645C124.409,106.43 124.515,107.284 124.515,108.217C124.515,109.147 124.409,110.006 124.195,110.795C123.983,111.582 123.665,112.26 123.245,112.832C122.826,113.402 122.296,113.846 121.649,114.16C121.006,114.479 120.251,114.633 119.389,114.633" style="fill:rgb(26,26,24);fill-rule:nonzero;"/>
        <path d="M135.249,108.027C135.33,108.013 135.428,108.009 135.543,108.002C135.659,107.996 135.761,107.992 135.854,107.992C135.958,107.992 136.06,107.996 136.165,108.002C136.269,108.01 136.36,108.014 136.441,108.027L136.441,114.066C136.244,114.168 136.013,114.257 135.74,114.324C135.47,114.394 135.182,114.451 134.877,114.496C134.573,114.545 134.26,114.576 133.939,114.598C133.614,114.625 133.299,114.633 132.989,114.633C132.16,114.633 131.39,114.5 130.677,114.238C129.963,113.974 129.348,113.58 128.832,113.049C128.313,112.518 127.909,111.861 127.614,111.078C127.322,110.299 127.175,109.387 127.175,108.355C127.175,107.318 127.318,106.398 127.605,105.584C127.893,104.773 128.292,104.086 128.804,103.529C129.316,102.97 129.92,102.547 130.616,102.254C131.311,101.961 132.068,101.815 132.887,101.815C133.61,101.815 134.213,101.864 134.699,101.961C135.181,102.059 135.572,102.156 135.873,102.244C135.848,102.453 135.816,102.629 135.776,102.779C135.737,102.931 135.676,103.103 135.594,103.299C135.342,103.205 135.002,103.113 134.579,103.014C134.152,102.918 133.61,102.866 132.955,102.866C132.3,102.866 131.694,102.993 131.142,103.237C130.591,103.485 130.115,103.844 129.718,104.317C129.321,104.792 129.013,105.362 128.788,106.046C128.561,106.722 128.45,107.493 128.45,108.357C128.45,109.242 128.572,110.007 128.812,110.658C129.055,111.31 129.382,111.846 129.796,112.275C130.211,112.701 130.696,113.015 131.254,113.222C131.812,113.425 132.408,113.533 133.041,113.533C133.558,113.533 133.993,113.513 134.345,113.471C134.694,113.432 134.995,113.366 135.25,113.272L135.25,108.027L135.249,108.027Z" style="fill:rgb(26,26,24);fill-rule:nonzero;"/>
        <path d="M140.131,102.02C140.212,102.01 140.31,102 140.426,101.997C140.541,101.993 140.644,101.989 140.737,101.989C140.841,101.989 140.943,101.993 141.047,101.997C141.149,102.001 141.242,102.011 141.324,102.02L141.324,114.43C141.242,114.438 141.149,114.448 141.047,114.451C140.943,114.461 140.841,114.465 140.737,114.465C140.621,114.465 140.508,114.461 140.401,114.451C140.29,114.447 140.201,114.437 140.131,114.43L140.131,102.02L140.131,102.02Z" style="fill:rgb(26,26,24);fill-rule:nonzero;"/>
        <path d="M144.772,113.049C144.934,113.096 145.101,113.147 145.273,113.203C145.446,113.262 145.639,113.314 145.852,113.357C146.063,113.402 146.303,113.443 146.568,113.482C146.832,113.511 147.137,113.531 147.482,113.531C148.035,113.531 148.509,113.465 148.905,113.332C149.301,113.199 149.631,113.021 149.889,112.797C150.147,112.57 150.34,112.309 150.467,112.004C150.594,111.697 150.657,111.365 150.657,111.012C150.657,110.666 150.613,110.369 150.527,110.123C150.441,109.877 150.292,109.648 150.079,109.439C149.865,109.236 149.573,109.037 149.199,108.847C148.823,108.656 148.356,108.452 147.791,108.236C147.388,108.084 147.007,107.922 146.644,107.754C146.281,107.576 145.965,107.367 145.688,107.119C145.411,106.871 145.193,106.58 145.03,106.23C144.868,105.884 144.79,105.455 144.79,104.935C144.79,104.005 145.125,103.249 145.798,102.673C146.471,102.103 147.453,101.814 148.74,101.814C148.992,101.814 149.248,101.824 149.507,101.849C149.767,101.872 150.008,101.898 150.233,101.935C150.458,101.97 150.666,102.009 150.856,102.052C151.044,102.103 151.196,102.142 151.312,102.173C151.289,102.351 151.257,102.523 151.216,102.704C151.177,102.882 151.128,103.05 151.07,103.214C150.795,103.12 150.441,103.036 150.008,102.96C149.577,102.886 149.149,102.847 148.722,102.847C147.768,102.847 147.083,103.046 146.671,103.435C146.256,103.83 146.047,104.32 146.047,104.919C146.047,105.228 146.111,105.497 146.237,105.73C146.364,105.959 146.539,106.162 146.764,106.335C146.987,106.509 147.258,106.667 147.569,106.808C147.877,106.954 148.21,107.093 148.569,107.234C149.052,107.429 149.504,107.629 149.922,107.838C150.344,108.045 150.702,108.283 151.002,108.565C151.301,108.838 151.537,109.163 151.711,109.538C151.881,109.911 151.968,110.362 151.968,110.893C151.968,111.491 151.864,112.022 151.651,112.487C151.438,112.952 151.133,113.346 150.744,113.659C150.352,113.979 149.873,114.223 149.31,114.386C148.749,114.55 148.114,114.634 147.413,114.634C146.733,114.634 146.171,114.585 145.72,114.489C145.273,114.391 144.852,114.28 144.462,114.153C144.484,113.979 144.525,113.794 144.584,113.592C144.64,113.389 144.705,113.207 144.772,113.049" style="fill:rgb(26,26,24);fill-rule:nonzero;"/>
        <path d="M156.938,103.09L153.608,103.09C153.595,103.024 153.587,102.94 153.583,102.842C153.577,102.744 153.572,102.649 153.572,102.555C153.572,102.475 153.577,102.381 153.583,102.28C153.588,102.175 153.596,102.091 153.608,102.02L161.46,102.02C161.471,102.09 161.481,102.17 161.487,102.262C161.491,102.356 161.494,102.448 161.494,102.541C161.494,102.621 161.491,102.715 161.487,102.824C161.48,102.931 161.47,103.023 161.46,103.09L158.13,103.09L158.13,114.43C158.048,114.438 157.957,114.448 157.854,114.451C157.751,114.461 157.647,114.465 157.542,114.465C157.427,114.465 157.315,114.461 157.207,114.451C157.097,114.447 157.007,114.437 156.938,114.43L156.938,103.09L156.938,103.09Z" style="fill:rgb(26,26,24);fill-rule:nonzero;"/>
        <path d="M163.978,102.02C164.06,102.01 164.158,102 164.273,101.997C164.389,101.993 164.491,101.989 164.584,101.989C164.688,101.989 164.79,101.993 164.896,101.997C164.998,102.001 165.09,102.011 165.171,102.02L165.171,114.43C165.09,114.438 164.997,114.448 164.896,114.451C164.791,114.461 164.689,114.465 164.584,114.465C164.47,114.465 164.357,114.461 164.249,114.451C164.139,114.447 164.05,114.437 163.978,114.43L163.978,102.02Z" style="fill:rgb(26,26,24);fill-rule:nonzero;"/>
        <path d="M171.09,108.076L175.455,102.019C175.548,102.009 175.643,101.999 175.74,101.996C175.837,101.993 175.932,101.988 176.026,101.988C176.15,101.988 176.27,101.992 176.385,101.996C176.501,102 176.62,102.01 176.747,102.019L172.501,107.957L177.405,114.43C177.275,114.438 177.149,114.448 177.015,114.451C176.881,114.461 176.751,114.465 176.624,114.465C176.521,114.465 176.415,114.461 176.308,114.451C176.196,114.447 176.091,114.437 175.988,114.43L171.09,108.076ZM169.087,102.02C169.168,102.01 169.266,102 169.381,101.997C169.496,101.994 169.599,101.989 169.693,101.989C169.797,101.989 169.898,101.993 170.003,101.997C170.107,102.001 170.197,102.011 170.279,102.02L170.279,114.43C170.197,114.438 170.106,114.448 170.003,114.451C169.899,114.461 169.797,114.465 169.693,114.465C169.577,114.465 169.465,114.461 169.356,114.451C169.245,114.447 169.157,114.437 169.087,114.43L169.087,102.02L169.087,102.02Z" style="fill:rgb(26,26,24);fill-rule:nonzero;"/>
        <path d="M184.996,101.035C185.077,101.027 185.173,101.017 185.281,101.014C185.39,101.01 185.489,101.004 185.583,101.004C185.687,101.004 185.787,101.01 185.884,101.014C185.981,101.018 186.073,101.028 186.153,101.035L186.153,117.326C186.074,117.338 185.981,117.347 185.884,117.351C185.787,117.361 185.687,117.361 185.583,117.361C185.467,117.361 185.359,117.361 185.255,117.351C185.153,117.347 185.064,117.337 184.996,117.326L184.996,101.035Z" style="fill:rgb(26,26,24);fill-rule:nonzero;"/>
        <path d="M203.047,113.014C203.138,113.186 203.219,113.354 203.289,113.512C203.358,113.672 203.408,113.84 203.444,114.014C203.051,114.209 202.587,114.364 202.045,114.473C201.506,114.58 200.935,114.633 200.339,114.633C199.497,114.633 198.73,114.496 198.033,114.223C197.336,113.944 196.743,113.545 196.249,113.014C195.756,112.487 195.368,111.83 195.093,111.047C194.817,110.264 194.679,109.369 194.679,108.356C194.679,107.319 194.815,106.393 195.083,105.588C195.354,104.774 195.733,104.092 196.224,103.533C196.712,102.971 197.305,102.547 198.001,102.254C198.697,101.961 199.474,101.815 200.339,101.815C201.062,101.815 201.668,101.864 202.15,101.971C202.632,102.073 202.985,102.16 203.202,102.227C203.181,102.436 203.147,102.608 203.108,102.745C203.065,102.884 203.006,103.052 202.924,103.247C202.778,103.202 202.626,103.159 202.469,103.108C202.317,103.065 202.139,103.02 201.944,102.989C201.747,102.954 201.521,102.923 201.261,102.901C201.002,102.878 200.7,102.87 200.354,102.87C199.676,102.87 199.067,102.989 198.527,103.237C197.985,103.485 197.525,103.844 197.148,104.317C196.768,104.786 196.473,105.362 196.267,106.04C196.058,106.722 195.956,107.493 195.956,108.356C195.956,109.241 196.069,110.012 196.298,110.667C196.53,111.323 196.85,111.866 197.256,112.302C197.665,112.732 198.145,113.05 198.692,113.257C199.236,113.46 199.827,113.568 200.459,113.568C201.001,113.568 201.491,113.513 201.935,113.412C202.377,113.305 202.748,113.172 203.047,113.014" style="fill:rgb(26,26,24);fill-rule:nonzero;"/>
        <path d="M210.555,113.549C211.22,113.549 211.796,113.42 212.28,113.16C212.764,112.902 213.166,112.535 213.488,112.066C213.81,111.591 214.048,111.029 214.205,110.373C214.362,109.719 214.437,108.996 214.437,108.217C214.437,107.434 214.362,106.713 214.205,106.057C214.048,105.403 213.81,104.844 213.488,104.375C213.166,103.91 212.764,103.551 212.28,103.291C211.797,103.029 211.22,102.9 210.555,102.9C209.887,102.9 209.31,103.029 208.82,103.291C208.331,103.551 207.929,103.91 207.612,104.375C207.297,104.844 207.06,105.402 206.904,106.057C206.75,106.713 206.671,107.434 206.671,108.217C206.671,108.996 206.75,109.719 206.904,110.373C207.06,111.029 207.297,111.592 207.612,112.066C207.929,112.535 208.331,112.902 208.82,113.16C209.31,113.42 209.887,113.549 210.555,113.549M210.555,114.633C209.693,114.633 208.938,114.479 208.294,114.16C207.649,113.846 207.116,113.402 206.696,112.832C206.278,112.26 205.961,111.582 205.748,110.795C205.535,110.006 205.428,109.147 205.428,108.217C205.428,107.283 205.535,106.43 205.748,105.645C205.961,104.866 206.278,104.184 206.696,103.618C207.116,103.048 207.649,102.604 208.294,102.29C208.938,101.976 209.692,101.815 210.555,101.815C211.415,101.815 212.17,101.975 212.815,102.29C213.458,102.604 213.992,103.048 214.41,103.618C214.83,104.184 215.147,104.866 215.361,105.645C215.573,106.43 215.68,107.284 215.68,108.217C215.68,109.147 215.573,110.006 215.361,110.795C215.147,111.582 214.83,112.26 214.41,112.832C213.992,113.402 213.458,113.846 212.815,114.16C212.17,114.479 211.415,114.633 210.555,114.633" style="fill:rgb(26,26,24);fill-rule:nonzero;"/>
        <path d="M222.528,107.248C222.54,107.31 222.548,107.398 222.555,107.523C222.56,107.65 222.563,107.761 222.563,107.855C222.563,107.947 222.56,108.048 222.555,108.164C222.547,108.279 222.539,108.363 222.528,108.42L217.988,108.42C217.977,108.363 217.971,108.279 217.965,108.164C217.96,108.049 217.955,107.947 217.955,107.855C217.955,107.761 217.96,107.65 217.965,107.523C217.972,107.398 217.978,107.31 217.988,107.248L222.528,107.248Z" style="fill:rgb(26,26,24);fill-rule:nonzero;"/>
        <path d="M226.672,108.457C226.788,108.471 226.888,108.478 226.972,108.484C227.06,108.492 227.147,108.496 227.232,108.5C227.319,108.506 227.416,108.514 227.527,108.52C227.635,108.524 227.776,108.528 227.948,108.528C228.364,108.528 228.772,108.493 229.173,108.421C229.577,108.357 229.942,108.214 230.271,108.003C230.596,107.788 230.863,107.487 231.063,107.103C231.267,106.718 231.366,106.208 231.366,105.576C231.366,105.07 231.289,104.65 231.132,104.31C230.98,103.968 230.757,103.699 230.469,103.49C230.181,103.283 229.832,103.133 229.416,103.039C229.002,102.951 228.542,102.902 228.036,102.902C227.737,102.902 227.473,102.91 227.242,102.927C227.011,102.945 226.821,102.962 226.674,102.989L226.674,108.457L226.672,108.457ZM225.479,102.02C225.595,102.01 225.756,101.993 225.963,101.961C226.171,101.93 226.398,101.908 226.645,101.891C226.893,101.877 227.147,101.86 227.406,101.838C227.663,101.818 227.897,101.815 228.103,101.815C228.783,101.815 229.397,101.883 229.949,102.02C230.501,102.161 230.978,102.379 231.375,102.674C231.771,102.977 232.079,103.365 232.297,103.844C232.518,104.321 232.626,104.897 232.626,105.574C232.626,106.301 232.5,106.92 232.254,107.437C232.007,107.957 231.674,108.376 231.254,108.701C230.833,109.019 230.344,109.258 229.787,109.404C229.227,109.554 228.645,109.631 228.035,109.631C227.769,109.631 227.54,109.627 227.343,109.613C227.149,109.603 226.925,109.586 226.673,109.562L226.673,114.429C226.591,114.437 226.5,114.447 226.396,114.45C226.292,114.46 226.191,114.464 226.086,114.464C225.97,114.464 225.859,114.46 225.751,114.45C225.64,114.446 225.55,114.436 225.48,114.429L225.48,102.02L225.479,102.02Z" style="fill:rgb(26,26,24);fill-rule:nonzero;"/>
        <path d="M240.339,110.166L238.11,103.264L235.921,110.166L240.339,110.166ZM237.438,102.02C237.518,102.01 237.627,102 237.767,101.997C237.903,101.993 238.031,101.989 238.145,101.989C238.273,101.989 238.403,101.993 238.532,101.997C238.666,102.001 238.774,102.011 238.853,102.02L242.995,114.43C242.925,114.438 242.828,114.448 242.704,114.451C242.574,114.461 242.453,114.465 242.338,114.465C242.235,114.465 242.128,114.461 242.012,114.451C241.897,114.447 241.8,114.437 241.72,114.43L240.682,111.268L235.576,111.268L234.593,114.43C234.499,114.438 234.393,114.448 234.272,114.451C234.154,114.461 234.041,114.465 233.938,114.465C233.823,114.465 233.704,114.461 233.585,114.451C233.461,114.447 233.367,114.437 233.299,114.43L237.438,102.02Z" style="fill:rgb(26,26,24);fill-rule:nonzero;"/>
        <path d="M252.813,113.014C252.903,113.186 252.985,113.354 253.055,113.512C253.122,113.672 253.172,113.84 253.208,114.014C252.817,114.209 252.352,114.364 251.811,114.473C251.271,114.58 250.701,114.633 250.102,114.633C249.263,114.633 248.493,114.496 247.798,114.223C247.102,113.944 246.507,113.545 246.014,113.014C245.519,112.487 245.134,111.83 244.857,111.047C244.58,110.264 244.443,109.369 244.443,108.356C244.443,107.319 244.578,106.393 244.848,105.588C245.119,104.774 245.499,104.092 245.989,103.533C246.477,102.971 247.07,102.547 247.766,102.254C248.461,101.961 249.239,101.815 250.102,101.815C250.826,101.815 251.432,101.864 251.915,101.971C252.396,102.073 252.747,102.16 252.966,102.227C252.945,102.436 252.912,102.608 252.873,102.745C252.829,102.884 252.771,103.052 252.689,103.247C252.541,103.202 252.39,103.159 252.234,103.108C252.079,103.065 251.902,103.02 251.706,102.989C251.511,102.954 251.283,102.923 251.025,102.901C250.766,102.878 250.464,102.87 250.119,102.87C249.441,102.87 248.83,102.989 248.292,103.237C247.75,103.485 247.29,103.844 246.911,104.317C246.532,104.786 246.237,105.362 246.031,106.04C245.823,106.722 245.721,107.493 245.721,108.356C245.721,109.241 245.833,110.012 246.062,110.667C246.294,111.323 246.614,111.866 247.021,112.302C247.43,112.732 247.908,113.05 248.454,113.257C249.001,113.46 249.592,113.568 250.223,113.568C250.765,113.568 251.254,113.513 251.7,113.412C252.144,113.305 252.514,113.172 252.813,113.014" style="fill:rgb(26,26,24);fill-rule:nonzero;"/>
        <path d="M258.182,108.076L262.545,102.019C262.639,102.009 262.733,101.999 262.83,101.996C262.928,101.992 263.023,101.988 263.114,101.988C263.241,101.988 263.361,101.992 263.477,101.996C263.592,102 263.713,102.01 263.838,102.019L259.593,107.957L264.494,114.43C264.366,114.438 264.24,114.448 264.107,114.451C263.971,114.461 263.842,114.465 263.719,114.465C263.613,114.465 263.506,114.461 263.399,114.451C263.289,114.447 263.182,114.437 263.078,114.43L258.182,108.076ZM256.178,102.02C256.26,102.01 256.357,102 256.472,101.997C256.588,101.993 256.691,101.989 256.783,101.989C256.887,101.989 256.989,101.993 257.093,101.997C257.199,102.001 257.289,102.011 257.37,102.02L257.37,114.43C257.289,114.438 257.199,114.448 257.093,114.451C256.989,114.461 256.888,114.465 256.783,114.465C256.667,114.465 256.555,114.461 256.448,114.451C256.336,114.447 256.248,114.437 256.178,114.43L256.178,102.02Z" style="fill:rgb(26,26,24);fill-rule:nonzero;"/>
        <path d="M266.842,102.02C266.923,102.01 267.021,102 267.136,101.997C267.252,101.993 267.354,101.989 267.448,101.989C267.552,101.989 267.654,101.993 267.759,101.997C267.861,102.001 267.952,102.011 268.034,102.02L268.034,114.43C267.952,114.438 267.86,114.448 267.759,114.451C267.655,114.461 267.553,114.465 267.448,114.465C267.332,114.465 267.22,114.461 267.112,114.451C267.001,114.447 266.911,114.437 266.842,114.43L266.842,102.02Z" style="fill:rgb(26,26,24);fill-rule:nonzero;"/>
        <path d="M271.949,102.02C272.031,102.01 272.137,102 272.268,101.997C272.402,101.993 272.512,101.989 272.604,101.989C272.696,101.989 272.805,101.993 272.932,101.997C273.059,102.001 273.163,102.011 273.244,102.02L279.18,112.411L279.18,102.02C279.26,102.01 279.35,102 279.447,101.997C279.544,101.994 279.645,101.989 279.75,101.989C279.844,101.989 279.943,101.993 280.053,101.997C280.161,102.001 280.256,102.011 280.338,102.02L280.338,114.43C280.268,114.438 280.168,114.448 280.033,114.451C279.902,114.461 279.785,114.465 279.681,114.465C279.589,114.465 279.481,114.461 279.354,114.451C279.226,114.447 279.123,114.437 279.042,114.43L273.105,104.127L273.105,114.43C273.026,114.438 272.935,114.448 272.836,114.451C272.739,114.461 272.64,114.465 272.536,114.465C272.42,114.465 272.31,114.461 272.207,114.451C272.104,114.447 272.019,114.437 271.948,114.43L271.948,102.02L271.949,102.02Z" style="fill:rgb(26,26,24);fill-rule:nonzero;"/>
        <path d="M291.708,108.027C291.79,108.013 291.888,108.009 292.002,108.002C292.118,107.996 292.22,107.992 292.314,107.992C292.418,107.992 292.52,107.996 292.625,108.002C292.729,108.01 292.818,108.014 292.9,108.027L292.9,114.066C292.704,114.168 292.471,114.257 292.201,114.324C291.931,114.394 291.641,114.451 291.337,114.496C291.033,114.545 290.72,114.576 290.399,114.598C290.077,114.625 289.759,114.633 289.449,114.633C288.623,114.633 287.85,114.5 287.137,114.238C286.426,113.974 285.809,113.58 285.292,113.049C284.772,112.518 284.368,111.861 284.074,111.078C283.782,110.299 283.635,109.387 283.635,108.355C283.635,107.318 283.778,106.398 284.066,105.584C284.354,104.773 284.754,104.086 285.264,103.529C285.777,102.97 286.379,102.547 287.076,102.254C287.772,101.961 288.529,101.815 289.347,101.815C290.07,101.815 290.673,101.864 291.159,101.961C291.64,102.059 292.034,102.156 292.333,102.244C292.309,102.453 292.277,102.629 292.236,102.779C292.197,102.931 292.136,103.103 292.054,103.299C291.802,103.205 291.462,103.113 291.037,103.014C290.611,102.918 290.069,102.866 289.413,102.866C288.759,102.866 288.154,102.993 287.602,103.237C287.048,103.485 286.575,103.844 286.179,104.317C285.783,104.792 285.471,105.362 285.247,106.046C285.019,106.722 284.908,107.493 284.908,108.357C284.908,109.242 285.032,110.007 285.271,110.658C285.513,111.31 285.839,111.846 286.254,112.275C286.669,112.701 287.155,113.015 287.712,113.222C288.269,113.425 288.866,113.533 289.498,113.533C290.017,113.533 290.45,113.513 290.803,113.471C291.152,113.432 291.456,113.366 291.707,113.272L291.707,108.027L291.708,108.027Z" style="fill:rgb(26,26,24);fill-rule:nonzero;"/>
    </g>
    <g>
        <path d="M301.123,41.542C300.683,41.104 300.44,40.517 300.44,39.895C300.44,39.27 300.682,38.684 301.123,38.241L311.803,27.564L312.109,33.336L315.614,33.149L315.09,23.266C315.042,22.348 314.29,21.621 313.369,21.606L303.842,21.438L303.779,24.946L309.362,25.043L298.641,35.763C297.54,36.867 296.931,38.335 296.931,39.896C296.931,41.456 297.54,42.925 298.644,44.024L310.906,56.289L313.389,53.81L301.123,41.542Z" style="fill:rgb(209,5,12);fill-rule:nonzero;"/>
        <path d="M329.813,9.554C330.697,8.673 332.232,8.673 333.116,9.554L343.392,19.831L337.98,19.929L338.045,23.436L347.575,23.263C348.495,23.247 349.247,22.521 349.296,21.603L349.818,11.72L346.314,11.535L346,17.476L335.598,7.076C333.391,4.867 329.541,4.864 327.331,7.076L314.945,19.464L317.425,21.943L329.813,9.554Z" style="fill:rgb(209,5,12);fill-rule:nonzero;"/>
        <path d="M366,39.896C366,38.335 365.393,36.867 364.289,35.763L352.019,23.493L349.537,25.972L361.806,38.242C362.248,38.685 362.49,39.272 362.49,39.896C362.49,40.518 362.249,41.105 361.806,41.545L351.218,52.135L351.121,46.747L347.612,46.809L347.784,56.343C347.801,57.264 348.527,58.016 349.445,58.062L359.325,58.585L359.512,55.083L353.549,54.769L364.288,44.027C365.392,42.924 366,41.455 366,39.896Z" style="fill:rgb(209,5,12);fill-rule:nonzero;"/>
        <path d="M333.115,70.236C332.234,71.117 330.697,71.117 329.813,70.236L319.199,59.619L325.149,59.302L324.962,55.799L315.078,56.327C314.159,56.375 313.433,57.125 313.417,58.048L313.246,67.575L316.756,67.639L316.853,62.235L327.332,72.715C328.436,73.82 329.904,74.43 331.466,74.43C333.028,74.43 334.495,73.821 335.598,72.715L347.729,60.584L345.249,58.105L333.115,70.236Z" style="fill:rgb(209,5,12);fill-rule:nonzero;"/>
    </g>
    <g>
        <path d="M7.069,68.846C6.104,68.479 5.238,68.078 4.471,67.641C3.704,67.205 3.051,66.684 2.512,66.079C1.972,65.473 1.554,64.748 1.256,63.902C0.958,63.058 0.809,62.044 0.809,60.86C0.809,59.423 1.057,58.157 1.554,57.058C2.05,55.959 2.753,55.037 3.662,54.29C4.57,53.543 5.663,52.981 6.941,52.6C8.218,52.22 9.651,52.03 11.242,52.03C12.69,52.03 14.045,52.157 15.309,52.41C16.571,52.664 17.899,53.03 19.29,53.509C19.119,55.143 18.665,56.748 17.927,58.325C17.502,58.157 17.069,57.988 16.629,57.818C16.189,57.65 15.72,57.509 15.224,57.396C14.726,57.285 14.166,57.193 13.542,57.121C12.917,57.052 12.207,57.016 11.413,57.016C10.93,57.016 10.44,57.058 9.944,57.143C9.447,57.227 9,57.383 8.603,57.608C8.205,57.833 7.879,58.165 7.624,58.6C7.369,59.038 7.241,59.608 7.241,60.312C7.241,60.875 7.34,61.347 7.539,61.727C7.738,62.108 8.007,62.432 8.348,62.699C8.689,62.968 9.072,63.192 9.498,63.375C9.924,63.56 10.35,63.734 10.775,63.902L13.331,64.876C14.409,65.298 15.389,65.734 16.269,66.185C17.149,66.636 17.894,67.193 18.505,67.853C19.115,68.515 19.591,69.32 19.931,70.261C20.272,71.206 20.442,72.368 20.442,73.747C20.442,75.183 20.179,76.493 19.654,77.677C19.128,78.861 18.369,79.874 17.375,80.718C16.381,81.564 15.154,82.226 13.692,82.704C12.23,83.183 10.547,83.423 8.646,83.423C7.709,83.423 6.872,83.396 6.133,83.337C5.395,83.28 4.692,83.191 4.025,83.064C3.358,82.937 2.698,82.775 2.045,82.578C1.39,82.379 0.709,82.141 0,81.857C0.084,81.041 0.241,80.189 0.468,79.302C0.695,78.413 0.964,77.521 1.277,76.618C2.469,77.097 3.59,77.456 4.641,77.696C5.691,77.934 6.812,78.055 8.005,78.055C9.794,78.055 11.199,77.723 12.222,77.061C13.243,76.399 13.755,75.393 13.755,74.04C13.755,73.366 13.633,72.802 13.393,72.351C13.152,71.902 12.839,71.521 12.456,71.21C12.072,70.901 11.639,70.64 11.157,70.429C10.674,70.218 10.178,70.013 9.666,69.816L7.069,68.846Z" style="fill:rgb(209,5,12);fill-rule:nonzero;"/>
        <path d="M45.14,77.168C45.509,77.957 45.814,78.768 46.056,79.598C46.297,80.43 46.474,81.266 46.588,82.114C45.112,82.647 43.784,83.001 42.607,83.169C41.428,83.337 40.158,83.423 38.795,83.423C36.381,83.423 34.266,83.036 32.45,82.261C30.633,81.488 29.107,80.402 27.872,79.007C26.637,77.612 25.707,75.96 25.083,74.042C24.458,72.128 24.146,70.044 24.146,67.79C24.146,65.537 24.472,63.445 25.125,61.516C25.778,59.587 26.722,57.917 27.957,56.509C29.192,55.101 30.71,54.003 32.514,53.214C34.317,52.425 36.368,52.031 38.667,52.031C40.03,52.031 41.286,52.115 42.436,52.284C43.586,52.453 44.828,52.805 46.163,53.34C46.106,54.186 45.935,55.01 45.652,55.812C45.368,56.614 45.055,57.425 44.715,58.242C43.721,57.903 42.841,57.665 42.074,57.523C41.308,57.383 40.399,57.311 39.348,57.311C36.623,57.311 34.529,58.192 33.067,59.953C31.605,61.714 30.874,64.326 30.874,67.79C30.874,74.663 33.812,78.099 39.689,78.099C40.739,78.099 41.662,78.031 42.458,77.888C43.251,77.746 44.146,77.508 45.14,77.168Z" style="fill:rgb(209,5,12);fill-rule:nonzero;"/>
        <path d="M58.341,52.537C58.937,52.453 59.504,52.39 60.044,52.347C60.583,52.305 61.179,52.283 61.832,52.283C62.4,52.283 62.954,52.304 63.494,52.347C64.033,52.389 64.629,52.452 65.283,52.537L74.865,82.914C73.7,83.084 72.565,83.168 71.458,83.168C70.378,83.168 69.329,83.084 68.306,82.914L66.603,76.83L56.467,76.83L54.721,82.914C53.699,83.084 52.72,83.168 51.783,83.168C50.733,83.168 49.697,83.084 48.675,82.914L58.341,52.537ZM65.155,71.719L61.62,58.959L57.915,71.719L65.155,71.719Z" style="fill:rgb(209,5,12);fill-rule:nonzero;"/>
        <path d="M88.447,52.537L104.46,52.537C104.516,52.819 104.559,53.121 104.587,53.446C104.615,53.769 104.629,54.086 104.629,54.396C104.629,54.707 104.614,55.03 104.587,55.368C104.558,55.706 104.516,56.016 104.46,56.297L92.792,56.297L92.792,65.212L102.543,65.212C102.6,65.523 102.642,65.839 102.671,66.163C102.699,66.487 102.714,66.804 102.714,67.114C102.714,67.424 102.699,67.741 102.671,68.065C102.642,68.389 102.6,68.706 102.543,69.014L92.792,69.014L92.792,82.914C92.451,82.971 92.103,83.012 91.748,83.041C91.393,83.07 91.017,83.084 90.62,83.084C90.25,83.084 89.874,83.07 89.492,83.041C89.108,83.012 88.761,82.971 88.448,82.914L88.448,52.537L88.447,52.537Z" style="fill:rgb(26,26,24);fill-rule:nonzero;"/>
        <path d="M107.186,61.24C107.498,61.183 107.853,61.141 108.25,61.113C108.647,61.085 108.988,61.071 109.272,61.071C109.584,61.071 109.939,61.085 110.336,61.113C110.733,61.141 111.088,61.183 111.4,61.24L111.4,73.111C111.4,74.465 111.528,75.584 111.783,76.47C112.039,77.357 112.422,78.056 112.933,78.562C113.444,79.07 114.068,79.421 114.807,79.619C115.545,79.816 116.396,79.914 117.362,79.914C118.81,79.914 120.046,79.76 121.067,79.451L121.067,61.24C121.379,61.183 121.727,61.141 122.11,61.113C122.493,61.085 122.84,61.071 123.153,61.071C123.465,61.071 123.813,61.085 124.196,61.113C124.58,61.141 124.927,61.183 125.24,61.24L125.24,82.238C124.246,82.519 123.06,82.787 121.683,83.041C120.306,83.295 118.879,83.422 117.404,83.422C116.012,83.422 114.7,83.303 113.465,83.063C112.23,82.825 111.144,82.338 110.207,81.606C109.27,80.874 108.532,79.846 107.993,78.522C107.453,77.198 107.184,75.452 107.184,73.282L107.184,61.24L107.186,61.24Z" style="fill:rgb(26,26,24);fill-rule:nonzero;"/>
        <path d="M131.799,51.945C132.111,51.889 132.459,51.847 132.842,51.818C133.225,51.79 133.572,51.776 133.885,51.776C134.198,51.776 134.545,51.791 134.929,51.818C135.312,51.847 135.659,51.889 135.972,51.945L135.972,76.365C135.972,77.154 136.043,77.773 136.185,78.224C136.327,78.675 136.518,79.021 136.76,79.259C137.001,79.499 137.285,79.654 137.612,79.724C137.938,79.794 138.286,79.829 138.655,79.829C138.911,79.829 139.201,79.815 139.528,79.786C139.854,79.759 140.131,79.716 140.359,79.659C140.614,80.647 140.742,81.718 140.742,82.872C140.345,83.011 139.862,83.104 139.294,83.145C138.726,83.188 138.201,83.207 137.719,83.207C136.895,83.207 136.128,83.109 135.419,82.912C134.71,82.715 134.085,82.392 133.545,81.941C133.005,81.49 132.579,80.884 132.267,80.123C131.955,79.363 131.799,78.42 131.799,77.293L131.799,51.945L131.799,51.945Z" style="fill:rgb(26,26,24);fill-rule:nonzero;"/>
        <path d="M146.065,64.536L142.487,64.536C142.373,64.086 142.317,63.536 142.317,62.888C142.317,62.27 142.374,61.721 142.487,61.241L146.065,61.241L146.065,59.72C146.065,57.045 146.739,55.01 148.087,53.615C149.435,52.221 151.401,51.524 153.985,51.524C154.695,51.524 155.32,51.559 155.859,51.629C156.398,51.7 156.909,51.806 157.391,51.946C157.334,52.651 157.256,53.256 157.158,53.762C157.057,54.269 156.924,54.79 156.754,55.325C156.47,55.269 156.136,55.206 155.753,55.135C155.369,55.065 154.908,55.03 154.369,55.03C153.744,55.03 153.182,55.093 152.686,55.22C152.189,55.347 151.763,55.587 151.409,55.939C151.054,56.291 150.776,56.784 150.579,57.418C150.38,58.052 150.28,58.861 150.28,59.846L150.28,61.241L155.859,61.241C155.944,61.805 155.987,62.381 155.987,62.973C155.987,63.509 155.944,64.03 155.859,64.536L150.28,64.536L150.28,82.914C149.968,82.971 149.621,83.012 149.237,83.041C148.854,83.07 148.506,83.084 148.194,83.084C147.882,83.084 147.527,83.07 147.13,83.041C146.732,83.012 146.377,82.971 146.066,82.914L146.066,64.536L146.065,64.536Z" style="fill:rgb(26,26,24);fill-rule:nonzero;"/>
        <path d="M161.608,64.536L158.839,64.536C158.782,64.31 158.739,64.051 158.711,63.754C158.683,63.459 158.669,63.17 158.669,62.888C158.669,62.608 158.683,62.319 158.711,62.023C158.739,61.727 158.782,61.466 158.839,61.241L165.738,61.241L165.738,82.915C165.425,82.972 165.078,83.013 164.695,83.042C164.311,83.071 163.963,83.085 163.651,83.085C163.367,83.085 163.034,83.071 162.65,83.042C162.267,83.013 161.919,82.972 161.607,82.915L161.607,64.536L161.608,64.536ZM160.671,56.466C160.614,56.128 160.579,55.763 160.565,55.367C160.55,54.973 160.544,54.621 160.544,54.31C160.544,54.001 160.55,53.649 160.565,53.254C160.58,52.86 160.615,52.508 160.671,52.199C161.04,52.142 161.438,52.1 161.863,52.072C162.29,52.044 162.658,52.03 162.97,52.03C163.282,52.03 163.652,52.045 164.077,52.072C164.502,52.099 164.886,52.142 165.226,52.199C165.283,52.509 165.318,52.861 165.332,53.254C165.347,53.65 165.353,54.002 165.353,54.31C165.353,54.621 165.346,54.973 165.332,55.367C165.317,55.763 165.282,56.128 165.226,56.466C164.885,56.523 164.509,56.565 164.098,56.593C163.686,56.621 163.324,56.635 163.012,56.635C162.671,56.635 162.288,56.62 161.862,56.593C161.438,56.565 161.04,56.522 160.671,56.466Z" style="fill:rgb(26,26,24);fill-rule:nonzero;"/>
        <path d="M172.51,51.945C172.822,51.889 173.17,51.847 173.554,51.818C173.937,51.79 174.283,51.776 174.597,51.776C174.909,51.776 175.257,51.791 175.64,51.818C176.023,51.847 176.37,51.889 176.683,51.945L176.683,76.365C176.683,77.154 176.754,77.773 176.896,78.224C177.038,78.675 177.23,79.021 177.471,79.259C177.712,79.499 177.996,79.654 178.323,79.724C178.65,79.794 178.998,79.829 179.366,79.829C179.623,79.829 179.913,79.815 180.239,79.786C180.565,79.759 180.843,79.716 181.07,79.659C181.326,80.647 181.453,81.718 181.453,82.872C181.056,83.011 180.573,83.104 180.006,83.145C179.438,83.188 178.912,83.207 178.43,83.207C177.607,83.207 176.84,83.109 176.131,82.912C175.421,82.715 174.796,82.392 174.257,81.941C173.717,81.49 173.291,80.884 172.979,80.123C172.667,79.363 172.511,78.42 172.511,77.293L172.511,51.945L172.51,51.945Z" style="fill:rgb(26,26,24);fill-rule:nonzero;"/>
        <path d="M185.199,51.945C185.511,51.889 185.86,51.847 186.242,51.818C186.626,51.79 186.973,51.776 187.285,51.776C187.597,51.776 187.946,51.791 188.329,51.818C188.713,51.847 189.059,51.889 189.373,51.945L189.373,76.365C189.373,77.154 189.444,77.773 189.586,78.224C189.728,78.675 189.918,79.021 190.16,79.259C190.401,79.499 190.685,79.654 191.013,79.724C191.339,79.794 191.687,79.829 192.056,79.829C192.312,79.829 192.603,79.815 192.929,79.786C193.255,79.759 193.532,79.716 193.759,79.659C194.015,80.647 194.142,81.718 194.142,82.872C193.745,83.011 193.262,83.104 192.695,83.145C192.126,83.188 191.601,83.207 191.12,83.207C190.296,83.207 189.529,83.109 188.82,82.912C188.11,82.715 187.484,82.392 186.946,81.941C186.406,81.49 185.98,80.884 185.669,80.123C185.357,79.363 185.2,78.42 185.2,77.293L185.2,51.945L185.199,51.945Z" style="fill:rgb(26,26,24);fill-rule:nonzero;"/>
        <path d="M197.975,61.24C198.287,61.183 198.592,61.141 198.89,61.113C199.189,61.085 199.494,61.071 199.807,61.071C200.119,61.071 200.41,61.085 200.679,61.113C200.95,61.141 201.24,61.183 201.552,61.24C201.637,61.662 201.723,62.219 201.809,62.908C201.893,63.599 201.936,64.182 201.936,64.662C202.191,64.155 202.51,63.669 202.894,63.204C203.278,62.739 203.73,62.324 204.256,61.958C204.781,61.592 205.385,61.297 206.066,61.071C206.748,60.846 207.5,60.733 208.324,60.733C210.027,60.733 211.339,61.078 212.263,61.768C213.185,62.458 213.887,63.423 214.371,64.663C214.654,64.184 215.002,63.706 215.414,63.226C215.825,62.747 216.286,62.325 216.798,61.958C217.309,61.592 217.89,61.297 218.543,61.071C219.196,60.846 219.935,60.733 220.757,60.733C223.284,60.733 225.123,61.437 226.273,62.846C227.422,64.254 227.999,66.338 227.999,69.097L227.999,82.913C227.686,82.97 227.331,83.011 226.935,83.04C226.536,83.069 226.182,83.083 225.87,83.083C225.558,83.083 225.21,83.069 224.827,83.04C224.443,83.011 224.096,82.97 223.784,82.913L223.784,70.323C223.784,68.38 223.485,66.921 222.888,65.949C222.293,64.977 221.313,64.491 219.95,64.491C218.503,64.491 217.331,65.012 216.435,66.055C215.542,67.098 215.095,68.631 215.095,70.66L215.095,82.912C214.783,82.969 214.434,83.01 214.052,83.039C213.668,83.068 213.32,83.082 213.008,83.082C212.695,83.082 212.348,83.068 211.964,83.039C211.58,83.01 211.232,82.969 210.921,82.912L210.921,70.027C210.921,68.14 210.637,66.724 210.069,65.781C209.502,64.839 208.591,64.367 207.342,64.367C206.633,64.367 205.965,64.521 205.341,64.831C204.716,65.142 204.169,65.605 203.702,66.226C203.232,66.845 202.863,67.626 202.594,68.57C202.324,69.515 202.19,70.605 202.19,71.845L202.19,82.913C201.878,82.97 201.53,83.011 201.147,83.04C200.763,83.069 200.417,83.083 200.104,83.083C199.791,83.083 199.436,83.069 199.04,83.04C198.642,83.011 198.287,82.97 197.975,82.913L197.975,61.24L197.975,61.24Z" style="fill:rgb(26,26,24);fill-rule:nonzero;"/>
        <path d="M237.494,73.111C237.55,75.478 238.167,77.211 239.346,78.308C240.525,79.408 242.263,79.956 244.564,79.956C246.579,79.956 248.496,79.604 250.312,78.899C250.54,79.321 250.723,79.837 250.866,80.442C251.008,81.047 251.094,81.645 251.122,82.237C250.185,82.633 249.155,82.926 248.035,83.126C246.912,83.321 245.67,83.421 244.307,83.421C242.321,83.421 240.617,83.146 239.198,82.597C237.778,82.048 236.607,81.273 235.685,80.273C234.761,79.275 234.087,78.091 233.662,76.724C233.236,75.359 233.023,73.859 233.023,72.224C233.023,70.619 233.228,69.12 233.64,67.724C234.051,66.331 234.683,65.12 235.535,64.092C236.387,63.064 237.459,62.247 238.751,61.641C240.043,61.036 241.568,60.733 243.329,60.733C244.833,60.733 246.153,60.986 247.289,61.493C248.425,62 249.376,62.698 250.143,63.585C250.911,64.472 251.491,65.528 251.888,66.753C252.286,67.978 252.486,69.31 252.486,70.745C252.486,71.14 252.471,71.556 252.442,71.991C252.414,72.429 252.385,72.802 252.358,73.11L237.494,73.11L237.494,73.111ZM248.31,69.986C248.31,69.197 248.204,68.443 247.991,67.724C247.778,67.007 247.466,66.38 247.054,65.846C246.643,65.311 246.117,64.881 245.479,64.557C244.839,64.233 244.08,64.071 243.201,64.071C241.469,64.071 240.141,64.592 239.219,65.634C238.297,66.677 237.736,68.127 237.536,69.986L248.31,69.986Z" style="fill:rgb(26,26,24);fill-rule:nonzero;"/>
        <path d="M258.019,61.24C258.331,61.183 258.638,61.141 258.935,61.113C259.235,61.085 259.539,61.071 259.851,61.071C260.163,61.071 260.455,61.085 260.725,61.113C260.994,61.141 261.285,61.183 261.596,61.24C261.682,61.662 261.768,62.233 261.853,62.951C261.938,63.669 261.981,64.267 261.981,64.747C262.264,64.268 262.627,63.789 263.067,63.31C263.505,62.831 264.009,62.401 264.578,62.021C265.147,61.64 265.799,61.332 266.537,61.092C267.275,60.852 268.085,60.733 268.965,60.733C271.464,60.733 273.309,61.444 274.501,62.866C275.693,64.289 276.289,66.394 276.289,69.183L276.289,82.913C275.977,82.97 275.622,83.011 275.225,83.04C274.828,83.069 274.472,83.083 274.161,83.083C273.849,83.083 273.502,83.069 273.117,83.04C272.735,83.011 272.387,82.97 272.074,82.913L272.074,70.323C272.074,68.323 271.762,66.852 271.137,65.907C270.513,64.964 269.518,64.491 268.156,64.491C267.362,64.491 266.609,64.633 265.9,64.914C265.189,65.196 264.564,65.633 264.026,66.225C263.486,66.817 263.053,67.582 262.727,68.528C262.401,69.471 262.236,70.604 262.236,71.928L262.236,82.912C261.924,82.969 261.577,83.01 261.193,83.039C260.811,83.068 260.463,83.082 260.15,83.082C259.838,83.082 259.482,83.068 259.086,83.039C258.689,83.01 258.333,82.969 258.021,82.912L258.021,61.24L258.019,61.24Z" style="fill:rgb(26,26,24);fill-rule:nonzero;"/>
        <path d="M283.441,64.578L280.121,64.578L279.951,63.986L287.275,55.874L287.616,55.874L287.616,61.24L293.152,61.24C293.264,61.719 293.323,62.254 293.323,62.846C293.323,63.156 293.308,63.451 293.279,63.733C293.25,64.015 293.209,64.297 293.152,64.578L287.616,64.578L287.616,74.465C287.616,75.647 287.665,76.592 287.765,77.295C287.863,78 288.035,78.541 288.276,78.922C288.516,79.303 288.843,79.555 289.255,79.682C289.666,79.811 290.186,79.873 290.81,79.873C291.293,79.873 291.748,79.838 292.174,79.768C292.6,79.698 292.982,79.62 293.323,79.536C293.521,80.1 293.642,80.677 293.683,81.266C293.727,81.858 293.748,82.379 293.748,82.83C293.18,82.971 292.583,83.076 291.96,83.146C291.334,83.216 290.667,83.251 289.958,83.251C287.913,83.251 286.315,82.759 285.166,81.772C284.017,80.788 283.44,79.153 283.44,76.872L283.44,64.578L283.441,64.578Z" style="fill:rgb(26,26,24);fill-rule:nonzero;"/>
    </g>
</svg>
